<?xml version="1.0" encoding="UTF-8"?>
<svg width="24px" height="24px" viewBox="0 0 24 24" version="1.1" xmlns="http://www.w3.org/2000/svg">
    <path d="M18.12 1.333H5.88C3.183 1.333 1 3.513 1 6.207v11.586C1 20.487 3.183 22.667 5.88 22.667h12.24c2.697 0 4.88-2.18 4.88-4.874V6.207c0-2.694-2.183-4.874-4.88-4.874zm2.784 15.586c0 1.534-1.248 2.78-2.784 2.78H5.88c-1.536 0-2.784-1.246-2.784-2.78V6.207c0-1.534 1.248-2.78 2.784-2.78h12.24c1.536 0 2.784 1.246 2.784 2.78v10.712z" fill="#000000"/>
    <path d="M16.05 7.333H7.95c-.552 0-1 .448-1 1s.448 1 1 1h8.1c.552 0 1-.448 1-1s-.448-1-1-1zm0 3.667H7.95c-.552 0-1 .448-1 1s.448 1 1 1h8.1c.552 0 1-.448 1-1s-.448-1-1-1zm-3.6 3.667h-4.5c-.552 0-1 .447-1 1 0 .553.448 1 1 1h4.5c.552 0 1-.447 1-1 0-.553-.448-1-1-1z" fill="#000000"/>
</svg>
